Coordinates
version=1
nRows=12
nColumns=28
inDegrees=yes

Units are S.I. units (second, meters, Newtons, ...)
Angles are in degrees.

endheader
time	pelvis_tilt	pelvis_list	pelvis_rotation	pelvis_tx	pelvis_ty	pelvis_tz	hip_flexion_r	hip_adduction_r	hip_rotation_r	knee_angle_r	ankle_angle_r	subtalar_angle_r	mtp_angle_r	hip_flexion_l	hip_adduction_l	hip_rotation_l	knee_angle_l	socket_flexion	socket_adduction	socket_rotation	socket_tx	socket_ty	socket_tz	foot_flex	lumbar_extension	lumbar_bending	lumbar_rotation
      0.53333333	     -1.83807509	     -6.76632576	      7.56095936	     -0.01806891	      0.95958212	      0.23904437	     25.86566034	      6.35500617	     -2.89465266	     -8.85167690	      5.56419973	    -17.08339820	     -7.56802992	    -21.46144756	     -6.06562104	      8.66702903	      0.89403818	      7.97408543	      0.00000000	      0.00000000	      0.00000000	     -0.00191558	      0.00000000	      9.92157181	     -6.74691523	      7.10857471	    -18.53685149
      0.53750000	     -1.76823764	     -6.73157359	      7.43238682	     -0.01771349	      0.95954052	      0.23915648	     26.00937180	      6.26118171	     -3.67059670	     -9.23660720	      5.09662405	    -16.68466663	     -2.92418624	    -21.70934611	     -5.99060608	      8.36904885	      1.23213258	      8.15139743	      0.00000000	      0.00000000	      0.00000000	     -0.00173727	      0.00000000	      9.90443429	     -6.80006965	      7.06432032	    -18.45088066
      0.54166667	     -1.68808294	     -6.84667234	      7.52304115	     -0.01127980	      0.95827256	      0.23906519	     26.22544002	      6.46852677	     -3.44144497	    -10.11977660	      4.74625147	    -16.62836609	     -2.93198888	    -22.00175339	     -6.16740724	      8.52344853	      1.00330150	      8.28507819	      0.00000000	      0.00000000	      0.00000000	     -0.00172211	      0.00000000	      9.97018638	     -6.85965532	      7.27100472	    -18.48551790
      0.54583333	     -1.62101960	     -6.91048425	      7.40309467	     -0.00469390	      0.95691817	      0.23932468	     26.67358767	      6.65711922	     -3.49927086	    -11.44759834	      4.12832925	    -16.68729132	     -2.88314180	    -22.33134910	     -6.20168230	      8.25725851	      0.76638565	      8.39849571	      0.00000000	      0.00000000	      0.00000000	     -0.00163762	      0.00000000	      9.99762160	     -6.91922444	      7.41666985	    -18.53490090
      0.55000000	     -1.68061814	     -6.93353956	      7.22484534	      0.00184865	      0.95540885	      0.23970123	     27.22568291	      6.82752276	     -3.29668618	    -12.74909484	      3.54216805	    -16.73475976	     -2.59193212	    -22.51248234	     -6.16994819	      8.11673886	      0.50472027	      8.52815074	      0.00000000	      0.00000000	      0.00000000	     -0.00158980	      0.00000000	     10.00851054	     -6.83901278	      7.45965720	    -18.43623127
      0.55416667	     -1.62490442	     -7.03717104	      7.29300945	      0.00829839	      0.95422546	      0.23964484	     27.46923184	      7.03021040	     -3.01620632	    -13.70116341	      3.16301305	    -16.66632312	     -2.53023027	    -22.70737742	     -6.31015226	      8.25632539	      0.21163696	      8.74632094	      0.00000000	      0.00000000	      0.00000000	     -0.00159568	      0.00000000	      9.97887038	     -6.89303000	      7.66878691	    -18.43466372
      0.55833333	     -2.17142669	     -6.90015053	      6.95622253	      0.01457827	      0.95205841	      0.24041089	     28.69070152	      7.02253442	     -2.71362985	    -15.27822392	      1.82971500	    -17.42854242	      0.50619772	    -22.13814731	     -5.98786532	      8.01745415	     -0.62666840	      8.65458079	      0.00000000	      0.00000000	      0.00000000	     -0.00182026	      0.00000000	      9.91578671	     -6.29906895	      7.42441334	    -18.16357923
      0.56250000	     -2.04908017	     -6.97920316	      6.87742847	      0.02126472	      0.95101043	      0.24052271	     28.94458041	      7.22674997	     -2.59754485	    -16.43983276	      1.37633647	    -17.35164118	      0.52395625	    -22.44084994	     -6.04264608	      7.93771804	     -0.90936545	      8.87053635	      0.00000000	      0.00000000	      0.00000000	     -0.00171347	      0.00000000	      9.81915251	     -6.41544806	      7.61397525	    -18.20709637
      0.56666667	     -2.03598961	     -6.98003769	      6.69192760	      0.02790512	      0.94983286	      0.24092514	     29.35406366	      7.39338980	     -2.35661335	    -17.69646910	      0.86270788	    -17.26244963	      0.68517595	    -22.59482733	     -5.97078163	      7.79052546	     -1.28177061	      9.08921445	      0.00000000	      0.00000000	      0.00000000	     -0.00160299	      0.00000000	      9.69538979	     -6.42195120	      7.65109712	    -18.10823843
      0.57083333	     -1.95764340	     -7.09343978	      6.73401335	      0.03448286	      0.94891494	      0.24094774	     29.54256525	      7.61215724	     -2.09329528	    -18.66298926	      0.53025836	    -17.17202493	      0.71724824	    -22.72037543	     -6.10072488	      7.89572852	     -1.66240689	      9.39273679	      0.00000000	      0.00000000	      0.00000000	     -0.00162301	      0.00000000	      9.53174389	     -6.48804637	      7.86199916	    -18.10146529
      0.57500000	     -1.87952760	     -7.17881741	      6.61222850	      0.04114583	      0.94791826	      0.24122244	     29.84707791	      7.83609633	     -1.96320552	    -19.86549794	      0.07082289	    -17.10457787	      0.75680155	    -22.85820436	     -6.13107595	      7.80800967	     -2.13553636	      9.61429469	      0.00000000	      0.00000000	      0.00000000	     -0.00173665	      0.00000000	      9.29704109	     -6.56439530	      8.03453685	    -18.10694781
      0.57916667	     -2.42334626	     -6.84554109	      6.05663530	      0.04754083	      0.94607622	      0.24233657	     31.02544497	      7.76202264	     -1.39332997	    -21.54137914	     -0.46428793	    -17.19607757	      1.53791168	    -22.15953178	     -5.50680923	      7.36703452	     -3.22466690	      9.54939169	      0.00000000	      0.00000000	      0.00000000	     -0.00164347	      0.00000000	      9.02226009	     -6.01418827	      7.54145676	    -17.53580787
